<svg viewBox="0 0 14 20" fill="none" xmlns="http://www.w3.org/2000/svg">
<path d="M9.5 2.50001H12.1198C12.5441 2.09633 12.5441 1.21013 12.1198 0.806458H1.83677C1.41255 1.21013 1.41254 2.09633 1.83677 2.50001H4.5M9.5 2.50001V7.4772M9.5 2.50001H6.89393H5.24999H4.5M4.5 2.50001V7.4772M4.5 7.4772H9.5M4.5 7.4772C2.63333 7.96161 1.85354 9.83196 1.5 10.7066L6.5 10.7155M9.5 7.4772C11.5364 7.96161 12.2879 9.83196 12.5 10.7066L7.5 10.7155M6.5 10.7155H7.5M6.5 10.7155V14.5V16.5C6.5 17.1728 7 18.3165 7 18.3165C7 18.3165 7.5 16.9037 7.5 16.5L7.5 14.5V10.7155"/>
</svg>
